Later,Live With Jools Holland (BBC2,Crowded House,Kelis,)s36eo5[DTV-RIP-Divx]

First Shown On BBC 2 On Tuesday 11th May 2010


Description:

Joining Jools are James Murphy's LCD Soundsystem performing tracks from their third album This Is Happening; from Melbourne, Australia, Crowded House, led by original member Neil Finn, with tracks from their new album Intriguer; Kelis, performing tracks from her new Fleshtone album; and Brooklyn-based five-piece The National, with music from their new High Violet long player. Plus Pete Molinari, a country blues singer from Chatham in Kent, makes his debut on Later to play songs from his third album, A Train Bound For Glory.

General

Complete name : Later, Live With Jools Holland.s36eo5..divx
Format : AVI
Format/Info : Audio Video Interleave
File size : 337 MiB
Duration : 30mn 7s
Overall bit rate : 1 566 Kbps

Video
ID : 0
Format : MPEG-4 Visual
Format settings, BVOP : Yes
Format settings, QPel : No
Format settings, GMC : No warppoints
Format settings, Matrix : Default (H.263)
Muxing mode : Packed bitstream
Codec ID : DX50
Codec ID/Hint : DivX 5
Duration : 30mn 7s
Bit rate : 1 300 Kbps
Width : 684 pixels
Height : 384 pixels
Display aspect ratio : 16/9
Frame rate : 25.000 fps
Resolution : 24 bits
Colorimetry : 4:2:0
Scan type : Progressive
Bits/(Pixel*Frame) : 0.198
Stream size : 280 MiB (83%)
Title : Video
Writing library : DivX 6.8.2 (UTC 2008-05-17)

Audio
ID : 1
Format : AC-3
Format/Info : Audio Coding 3
Codec ID : 2000
Duration : 30mn 6s
Bit rate mode : Constant
Bit rate : 256 Kbps
Channel(s) : 2 channels
Channel positions : L R
Sampling rate : 48.0 KHz
Stream size : 55.1 MiB (16%)
Alignment : Split accross interleaves
Interleave, duration : 40 ms (1.00 video frame)
Interleave, preload duration : 500 ms 